<svg width="80" height="36" class="logo" viewBox="0 0 134 59" version="1.1" xmlns="http://www.w3.org/2000/svg" xlink="http://www.w3.org/1999/xlink"><title>Niice Logo</title><defs/><g id="iOS" stroke="none" stroke-width="1" fill="none" fill-rule="evenodd" type="MSPage"><path d="M0 5.36665H7.73753L24.4041 27.0311V5.36665H33.9275V44.6516H26.19L9.52334 23.045V44.6516H0V5.36665ZM45.2366 5.59871e-05C46.2963 5.59871e-05 47.3321 0.314266 48.2131 0.902951C49.0941 1.49164 49.7808 2.32836 50.1863 3.3073C50.5918 4.28625 50.6979 5.36345 50.4912 6.4027C50.2844 7.44194 49.7742 8.39655 49.0249 9.1458C48.2757 9.89505 47.3211 10.4053 46.2818 10.612C45.2426 10.8187 44.1654 10.7126 43.1864 10.3072C42.2075 9.90166 41.3708 9.21498 40.7821 8.33395C40.1934 7.45292 39.8792 6.41711 39.8792 5.35751C39.876 4.65305 40.0123 3.95494 40.2804 3.30349C40.5485 2.65204 40.943 2.06015 41.4412 1.56202C41.9393 1.06389 42.5312 0.669386 43.1826 0.401292C43.8341 0.133198 44.5322 -0.0031718 45.2366 5.59871e-05V5.59871e-05ZM49.9968 14.8809V44.6424H40.4735V14.89L49.9968 14.8809ZM61.306 48.1501C62.3646 48.1519 63.3991 48.4673 64.2786 49.0566C65.1582 49.6458 65.8435 50.4825 66.2479 51.4609C66.6523 52.4392 66.7578 53.5155 66.5511 54.5538C66.3443 55.5922 65.8346 56.5459 65.0862 57.2947C64.3378 58.0436 63.3843 58.5539 62.3461 58.7612C61.3079 58.9686 60.2316 58.8637 59.2529 58.4598C58.2743 58.0559 57.4373 57.3711 56.8475 56.4919C56.2578 55.6127 55.9418 54.5784 55.9394 53.5197C55.9345 52.8135 56.07 52.1133 56.3379 51.4598C56.6058 50.8064 57.0009 50.2126 57.5002 49.7131C57.9994 49.2135 58.593 48.8181 59.2463 48.5498C59.8996 48.2815 60.5997 48.1456 61.306 48.1501V48.1501ZM56.5489 14.89H66.0722V44.6516H56.5489V14.89ZM86.3683 14.2805C94.0449 14.2805 98.6283 18.0898 100.652 23.5661L91.2473 26.3607C90.5342 24.3981 88.8094 23.2065 86.3714 23.2065C82.8577 23.2065 80.5385 25.8274 80.5385 29.7556C80.5385 33.6837 82.8577 36.3015 86.3714 36.3015C88.7515 36.3015 90.5373 35.3507 91.5521 33.3851L100.064 37.2554C98.0981 41.3603 93.5147 45.2306 86.2556 45.2306C76.8511 45.2306 70.6007 38.9803 70.7135 29.7556C70.8293 20.4181 76.8999 14.2957 86.3653 14.2957L86.3683 14.2805ZM118.33 14.2805C127.854 14.2805 133.33 21.6584 133.33 30.3498C133.333 31.1659 133.273 31.981 133.15 32.7878H112.196C112.851 36.0608 114.938 37.49 118.921 37.49C121.838 37.49 123.861 36.5362 125.053 35.3568L131.123 40.0591C128.268 43.2711 123.922 45.2398 118.629 45.2398C108.807 45.2398 102.557 39.1082 102.557 29.7647C102.566 20.7229 108.624 14.2957 118.327 14.2957L118.33 14.2805ZM123.746 26.4216C123.27 23.8038 121.186 22.018 118.032 22.018C115.057 22.018 113.034 23.3254 112.26 26.4216H123.746Z" fill="#111111" type="MSShapeGroup"/></g></svg>