<svg width="1440" height="1142" viewBox="0 0 1440 1142" fill="none" xmlns="http://www.w3.org/2000/svg">
<mask id="mask0_2517_153" style="mask-type:alpha" maskUnits="userSpaceOnUse" x="0" y="0" width="1440" height="1142">
<path d="M0 381L1440 0V1142H0V381Z" fill="#D9D9D9"/>
</mask>
<g mask="url(#mask0_2517_153)">
<mask id="mask1_2517_153" style="mask-type:alpha" maskUnits="userSpaceOnUse" x="-131" y="99" width="845" height="541">
<path d="M-130.047 99H713.953V640H-130.047V99Z" fill="#C4C4C4"/>
</mask>
<g mask="url(#mask1_2517_153)">
<path d="M-185.004 356.932L-180.143 338.792L1553.63 803.356L1548.77 821.496L-185.004 356.932Z" fill="white"/>
<path d="M-175.285 320.651L-170.425 302.512L1563.35 767.076L1558.49 785.216L-175.285 320.651Z" fill="white"/>
<path d="M-165.559 284.374L-160.698 266.234L1573.08 730.799L1568.22 748.938L-165.559 284.374Z" fill="white"/>
<path d="M-155.836 248.096L-150.975 229.956L1582.8 694.52L1577.94 712.66L-155.836 248.096Z" fill="white"/>
<path d="M-146.117 211.815L-141.257 193.676L1592.52 658.24L1587.66 676.38L-146.117 211.815Z" fill="white"/>
<path d="M-136.402 175.533L-131.542 157.394L1602.24 621.958L1597.37 640.098L-136.402 175.533Z" fill="white"/>
<path d="M-180.168 338.879L-175.307 320.739L1558.47 785.304L1553.61 803.443L-180.168 338.879Z" fill="#111111"/>
<path d="M-170.441 302.6L-165.581 284.46L1568.2 749.024L1563.34 767.164L-170.441 302.6Z" fill="#111111"/>
<path d="M-160.723 266.319L-155.862 248.18L1577.91 712.744L1573.05 730.884L-160.723 266.319Z" fill="#111111"/>
<path d="M-151.004 230.039L-146.143 211.899L1587.63 676.464L1582.77 694.603L-151.004 230.039Z" fill="#111111"/>
<path d="M-141.289 193.757L-136.429 175.617L1597.35 640.182L1592.49 658.321L-141.289 193.757Z" fill="#111111"/>
</g>
<mask id="mask2_2517_153" style="mask-type:alpha" maskUnits="userSpaceOnUse" x="-131" y="293" width="845" height="541">
<path d="M-130.047 293H713.953V834H-130.047V293Z" fill="#C4C4C4"/>
</mask>
<g mask="url(#mask2_2517_153)">
<path d="M-185.004 550.932L-180.143 532.792L1553.63 997.356L1548.77 1015.5L-185.004 550.932Z" fill="white"/>
<path d="M-175.285 514.651L-170.425 496.512L1563.35 961.076L1558.49 979.216L-175.285 514.651Z" fill="white"/>
<path d="M-165.559 478.374L-160.698 460.234L1573.08 924.799L1568.22 942.938L-165.559 478.374Z" fill="white"/>
<path d="M-155.836 442.096L-150.975 423.956L1582.8 888.52L1577.94 906.66L-155.836 442.096Z" fill="white"/>
<path d="M-146.117 405.815L-141.257 387.676L1592.52 852.24L1587.66 870.38L-146.117 405.815Z" fill="white"/>
<path d="M-136.402 369.533L-131.542 351.394L1602.24 815.958L1597.37 834.098L-136.402 369.533Z" fill="white"/>
<path d="M-180.168 532.879L-175.307 514.739L1558.47 979.304L1553.61 997.443L-180.168 532.879Z" fill="#111111"/>
<path d="M-170.441 496.6L-165.581 478.46L1568.2 943.024L1563.34 961.164L-170.441 496.6Z" fill="#111111"/>
<path d="M-160.723 460.319L-155.862 442.18L1577.91 906.744L1573.05 924.884L-160.723 460.319Z" fill="#111111"/>
<path d="M-151.004 424.039L-146.143 405.899L1587.63 870.464L1582.77 888.603L-151.004 424.039Z" fill="#111111"/>
<path d="M-141.289 387.757L-136.429 369.617L1597.35 834.182L1592.49 852.321L-141.289 387.757Z" fill="#111111"/>
</g>
<mask id="mask3_2517_153" style="mask-type:alpha" maskUnits="userSpaceOnUse" x="713" y="99" width="845" height="541">
<path d="M1557.95 99H713.953V640H1557.95V99Z" fill="#C4C4C4"/>
</mask>
<g mask="url(#mask3_2517_153)">
<path d="M1612.91 356.932L1608.05 338.792L-125.727 803.356L-120.867 821.496L1612.91 356.932Z" fill="white"/>
<path d="M1603.19 320.651L1598.33 302.512L-135.446 767.076L-130.586 785.216L1603.19 320.651Z" fill="white"/>
<path d="M1593.46 284.374L1588.6 266.234L-145.173 730.799L-140.312 748.938L1593.46 284.374Z" fill="white"/>
<path d="M1583.74 248.096L1578.88 229.956L-154.895 694.52L-150.035 712.66L1583.74 248.096Z" fill="white"/>
<path d="M1574.02 211.815L1569.16 193.676L-164.614 658.24L-159.754 676.38L1574.02 211.815Z" fill="white"/>
<path d="M1564.31 175.533L1559.45 157.394L-174.329 621.958L-169.468 640.098L1564.31 175.533Z" fill="white"/>
<path d="M1608.07 338.879L1603.21 320.739L-130.563 785.304L-125.703 803.443L1608.07 338.879Z" fill="#111111"/>
<path d="M1598.35 302.6L1593.49 284.46L-140.29 749.024L-135.429 767.164L1598.35 302.6Z" fill="#111111"/>
<path d="M1588.63 266.319L1583.77 248.18L-150.009 712.744L-145.148 730.884L1588.63 266.319Z" fill="#111111"/>
<path d="M1578.91 230.039L1574.05 211.899L-159.727 676.464L-154.867 694.603L1578.91 230.039Z" fill="#111111"/>
<path d="M1569.2 193.757L1564.33 175.617L-169.442 640.182L-164.582 658.321L1569.2 193.757Z" fill="#111111"/>
</g>
<mask id="mask4_2517_153" style="mask-type:alpha" maskUnits="userSpaceOnUse" x="713" y="293" width="845" height="541">
<path d="M1557.95 293H713.953V834H1557.95V293Z" fill="#C4C4C4"/>
</mask>
<g mask="url(#mask4_2517_153)">
<path d="M1612.91 550.932L1608.05 532.792L-125.727 997.356L-120.867 1015.5L1612.91 550.932Z" fill="white"/>
<path d="M1603.19 514.651L1598.33 496.512L-135.446 961.076L-130.586 979.216L1603.19 514.651Z" fill="white"/>
<path d="M1593.46 478.374L1588.6 460.234L-145.173 924.799L-140.312 942.938L1593.46 478.374Z" fill="white"/>
<path d="M1583.74 442.096L1578.88 423.956L-154.895 888.52L-150.035 906.66L1583.74 442.096Z" fill="white"/>
<path d="M1574.02 405.815L1569.16 387.676L-164.614 852.24L-159.754 870.38L1574.02 405.815Z" fill="white"/>
<path d="M1564.31 369.533L1559.45 351.394L-174.329 815.958L-169.468 834.098L1564.31 369.533Z" fill="white"/>
<path d="M1608.07 532.879L1603.21 514.739L-130.563 979.304L-125.703 997.443L1608.07 532.879Z" fill="#111111"/>
<path d="M1598.35 496.6L1593.49 478.46L-140.29 943.024L-135.429 961.164L1598.35 496.6Z" fill="#111111"/>
<path d="M1588.63 460.319L1583.77 442.18L-150.009 906.744L-145.148 924.884L1588.63 460.319Z" fill="#111111"/>
<path d="M1578.91 424.039L1574.05 405.899L-159.727 870.464L-154.867 888.603L1578.91 424.039Z" fill="#111111"/>
<path d="M1569.2 387.757L1564.33 369.617L-169.442 834.182L-164.582 852.321L1569.2 387.757Z" fill="#111111"/>
</g>
<mask id="mask5_2517_153" style="mask-type:alpha" maskUnits="userSpaceOnUse" x="713" y="488" width="845" height="541">
<path d="M1557.95 488H713.953V1029H1557.95V488Z" fill="#C4C4C4"/>
</mask>
<g mask="url(#mask5_2517_153)">
<path d="M1612.91 745.932L1608.05 727.792L-125.727 1192.36L-120.867 1210.5L1612.91 745.932Z" fill="white"/>
<path d="M1603.19 709.651L1598.33 691.512L-135.446 1156.08L-130.586 1174.22L1603.19 709.651Z" fill="#EB3054"/>
<path d="M1593.46 673.374L1588.6 655.234L-145.173 1119.8L-140.312 1137.94L1593.46 673.374Z" fill="white"/>
<path d="M1583.74 637.096L1578.88 618.956L-154.895 1083.52L-150.035 1101.66L1583.74 637.096Z" fill="white"/>
<path d="M1574.02 600.815L1569.16 582.676L-164.614 1047.24L-159.754 1065.38L1574.02 600.815Z" fill="white"/>
<path d="M1564.31 564.533L1559.45 546.394L-174.329 1010.96L-169.468 1029.1L1564.31 564.533Z" fill="white"/>
<path d="M1608.07 727.879L1603.21 709.739L-130.563 1174.3L-125.703 1192.44L1608.07 727.879Z" fill="#111111"/>
<path d="M1598.35 691.6L1593.49 673.46L-140.29 1138.02L-135.429 1156.16L1598.35 691.6Z" fill="#111111"/>
<path d="M1588.63 655.319L1583.77 637.18L-150.009 1101.74L-145.148 1119.88L1588.63 655.319Z" fill="#111111"/>
<path d="M1578.91 619.039L1574.05 600.899L-159.727 1065.46L-154.867 1083.6L1578.91 619.039Z" fill="#111111"/>
<path d="M1569.2 582.757L1564.33 564.617L-169.442 1029.18L-164.582 1047.32L1569.2 582.757Z" fill="#111111"/>
<mask id="mask6_2517_153" style="mask-type:alpha" maskUnits="userSpaceOnUse" x="713" y="680" width="845" height="541">
<path d="M1557.95 680H713.953V1221H1557.95V680Z" fill="#C4C4C4"/>
</mask>
<g mask="url(#mask6_2517_153)">
<path d="M1612.91 937.932L1608.05 919.792L-125.727 1384.36L-120.867 1402.5L1612.91 937.932Z" fill="white"/>
<path d="M1603.19 901.651L1598.33 883.512L-135.446 1348.08L-130.586 1366.22L1603.19 901.651Z" fill="white"/>
<path d="M1593.46 865.374L1588.6 847.234L-145.173 1311.8L-140.312 1329.94L1593.46 865.374Z" fill="white"/>
<path d="M1583.74 829.096L1578.88 810.956L-154.895 1275.52L-150.035 1293.66L1583.74 829.096Z" fill="white"/>
<path d="M1574.02 792.815L1569.16 774.676L-164.614 1239.24L-159.754 1257.38L1574.02 792.815Z" fill="#680E24"/>
<path d="M1564.31 756.533L1559.45 738.394L-174.329 1202.96L-169.468 1221.1L1564.31 756.533Z" fill="#9B1F3C"/>
<path d="M1608.07 919.879L1603.21 901.739L-130.563 1366.3L-125.703 1384.44L1608.07 919.879Z" fill="#111111"/>
<path d="M1598.35 883.6L1593.49 865.46L-140.29 1330.02L-135.429 1348.16L1598.35 883.6Z" fill="#111111"/>
<path d="M1588.63 847.319L1583.77 829.18L-150.009 1293.74L-145.148 1311.88L1588.63 847.319Z" fill="#111111"/>
<path d="M1578.91 811.039L1574.05 792.899L-159.727 1257.46L-154.867 1275.6L1578.91 811.039Z" fill="#111111"/>
<path d="M1569.2 774.757L1564.33 756.617L-169.442 1221.18L-164.582 1239.32L1569.2 774.757Z" fill="#111111"/>
</g>
</g>
<path d="M679 848H1449V1142H679V848Z" fill="#111111"/>
<path d="M0 661H714V1142H0V661Z" fill="#111111"/>
<path d="M1559.45 1096.1L1564.31 1077.96L-169.471 613.399L-174.332 631.538L1559.45 1096.1Z" fill="white"/>
<path d="M1569.17 1059.82L1574.03 1041.68L-159.748 577.119L-164.609 595.258L1569.17 1059.82Z" fill="white"/>
<path d="M1578.89 1023.54L1583.75 1005.4L-150.03 540.84L-154.89 558.98L1578.89 1023.54Z" fill="white"/>
<path d="M1588.61 987.265L1593.47 969.125L-140.311 504.561L-145.171 522.701L1588.61 987.265Z" fill="white"/>
<path d="M1598.33 950.984L1603.19 932.845L-130.588 468.281L-135.449 486.42L1598.33 950.984Z" fill="white"/>
<path d="M1608.05 914.706L1612.92 896.566L-120.862 432.002L-125.722 450.142L1608.05 914.706Z" fill="white"/>
<path d="M1564.28 1078.05L1569.14 1059.91L-164.635 595.346L-169.496 613.486L1564.28 1078.05Z" fill="#111111"/>
<path d="M1574 1041.77L1578.86 1023.63L-154.916 559.065L-159.777 577.204L1574 1041.77Z" fill="#111111"/>
<path d="M1583.72 1005.49L1588.58 987.35L-145.194 522.786L-150.054 540.925L1583.72 1005.49Z" fill="#111111"/>
<path d="M1593.45 969.21L1598.31 951.07L-135.471 486.506L-140.332 504.646L1593.45 969.21Z" fill="#111111"/>
<path d="M1603.17 932.931L1608.03 914.791L-125.745 450.227L-130.605 468.367L1603.17 932.931Z" fill="#111111"/>
<path d="M-0.335938 380.5L329.664 294.5V424H-0.335938V380.5Z" fill="white"/>
<path d="M1612.91 162.538L1608.05 144.398L-125.727 608.963L-120.867 627.102L1612.91 162.538Z" fill="white"/>
<path d="M1603.19 126.258L1598.33 108.118L-135.446 572.683L-130.586 590.822L1603.19 126.258Z" fill="white"/>
<path d="M1593.46 89.9805L1588.6 71.8409L-145.173 536.405L-140.312 554.545L1593.46 89.9805Z" fill="white"/>
<path d="M1583.74 53.7021L1578.88 35.5625L-154.895 500.127L-150.035 518.267L1583.74 53.7021Z" fill="white"/>
<path d="M1574.02 17.4219L1569.16 -0.71773L-164.614 463.847L-159.754 481.986L1574.02 17.4219Z" fill="white"/>
<path d="M1564.31 -18.8604L1559.45 -37L-174.329 427.564L-169.468 445.704L1564.31 -18.8604Z" fill="white"/>
<path d="M1608.07 144.485L1603.21 126.346L-130.563 590.91L-125.703 609.05L1608.07 144.485Z" fill="#111111"/>
<path d="M1598.35 108.206L1593.49 90.0664L-140.29 554.631L-135.429 572.77L1598.35 108.206Z" fill="#111111"/>
<path d="M1588.63 71.9258L1583.77 53.7862L-150.009 518.351L-145.148 536.49L1588.63 71.9258Z" fill="#111111"/>
<path d="M1578.91 35.6455L1574.05 17.5059L-159.727 482.07L-154.867 500.21L1578.91 35.6455Z" fill="#111111"/>
<path d="M1569.2 -0.636719L1564.33 -18.7763L-169.442 445.788L-164.582 463.928L1569.2 -0.636719Z" fill="#111111"/>
</g>
<rect x="713" y="637" width="3" height="18" fill="#111111"/>
<rect x="713" y="598" width="3" height="18" fill="#111111"/>
<rect x="713" y="559" width="3" height="18" fill="#111111"/>
<rect x="713" y="521" width="3" height="18" fill="#111111"/>
<rect x="713" y="482" width="3" height="18" fill="#111111"/>
<rect x="713" y="443" width="3" height="18" fill="#111111"/>
<rect x="713" y="404" width="3" height="18" fill="#111111"/>
<rect x="713" y="617" width="3" height="18" fill="white"/>
<path d="M713 578H716V596L714 597L713 596V578Z" fill="white"/>
<rect x="713" y="540" width="3" height="18" fill="white"/>
<rect x="713" y="501" width="3" height="18" fill="white"/>
<rect x="713" y="462" width="3" height="18" fill="white"/>
<rect x="713" y="423" width="3" height="18" fill="white"/>
</svg>
