<svg width="6974" height="615" viewBox="0 0 6974 615" fill="none" xmlns="http://www.w3.org/2000/svg">
<path fill-rule="evenodd" clip-rule="evenodd" d="M684.873 449.194C671.37 466.225 638.303 478.37 638.303 478.37L392.288 566.736V501.571L573.337 437.062C593.883 429.699 597.037 419.295 580.338 413.83C563.67 408.35 533.485 409.921 512.926 417.316L392.288 459.803V392.171L399.244 389.819C399.244 389.819 434.101 377.482 483.121 372.051C532.138 366.652 592.155 372.788 639.273 390.649C692.373 407.429 698.351 432.163 684.869 449.194H684.873ZM415.709 338.227V171.57C415.709 151.998 412.097 133.983 393.733 128.881C379.668 124.375 370.943 137.431 370.943 156.989V574.337L258.392 538.614V41C306.246 49.882 375.969 70.8846 413.448 83.5183C508.766 116.244 541.083 156.975 541.083 248.747C541.083 338.195 485.868 372.097 415.709 338.227ZM51.8697 494.759C-2.64363 479.406 -11.7141 447.421 13.131 428.994C36.095 411.98 75.1477 399.172 75.1477 399.172L236.527 341.79V407.209L120.395 448.768C99.8812 456.128 96.7262 466.549 113.398 472.011C130.08 477.473 160.279 475.92 180.824 468.542L236.527 448.328V506.855C232.995 507.483 229.059 508.111 225.415 508.722C169.694 517.827 110.351 514.027 51.8697 494.755V494.759ZM649.02 520.672C656.07 520.672 662.677 523.401 667.653 528.44C670.108 530.878 672.055 533.778 673.38 536.974C674.705 540.169 675.383 543.596 675.373 547.056C675.386 550.516 674.71 553.943 673.384 557.139C672.059 560.335 670.111 563.236 667.653 565.671C665.218 568.135 662.316 570.088 659.116 571.417C655.917 572.745 652.485 573.422 649.02 573.408C645.557 573.421 642.126 572.743 638.927 571.414C635.729 570.086 632.827 568.133 630.391 565.671C627.935 563.235 625.989 560.334 624.666 557.138C623.343 553.942 622.67 550.515 622.685 547.056C622.685 532.52 634.488 520.672 649.02 520.672ZM627.11 547.056C627.11 552.908 629.386 558.419 633.532 562.53C635.556 564.58 637.968 566.205 640.627 567.31C643.287 568.415 646.14 568.978 649.02 568.966C654.831 568.964 660.403 566.655 664.512 562.547C668.622 558.438 670.931 552.866 670.934 547.056C670.934 541.186 668.673 535.678 664.513 531.546C662.488 529.499 660.074 527.876 657.414 526.774C654.754 525.672 651.9 525.112 649.02 525.128C646.141 525.113 643.287 525.673 640.627 526.776C637.966 527.879 635.553 529.502 633.529 531.55C631.484 533.58 629.864 535.996 628.762 538.658C627.661 541.32 627.099 544.175 627.11 547.056V547.056ZM656.978 532.852C659.867 534.122 661.326 536.572 661.326 540.055C661.326 541.845 660.949 543.349 660.181 544.529C659.63 545.377 658.848 546.065 657.969 546.661C658.66 547.07 659.271 547.558 659.724 548.124C660.352 548.937 660.715 550.242 660.761 552.015L660.9 555.767C660.949 556.772 661.012 557.54 661.169 558.011C661.326 558.702 661.623 559.141 662.003 559.281L662.394 559.47V561.18H656.712L656.524 560.852C656.354 560.486 656.227 560.102 656.147 559.707C656.03 558.948 655.963 558.182 655.945 557.414L655.707 552.751C655.644 551.135 655.097 550.134 654.06 549.596C653.414 549.3 652.35 549.16 650.905 549.16H642.913V561.18H637.814V531.846H651.439C653.666 531.846 655.536 532.175 656.978 532.852V532.852ZM642.913 544.669H651.045C652.678 544.669 653.98 544.372 654.908 543.761C655.756 543.147 656.165 542.034 656.165 540.414C656.165 538.659 655.582 537.511 654.357 536.9C653.683 536.572 652.741 536.383 651.547 536.383H642.917V544.669H642.913Z" fill="white" fill-opacity="0.4"/>
<path d="M2581.23 214.817C2581.23 214.817 2585.54 208.354 2589.16 203.437C2595.76 194.495 2607.69 182.101 2616.67 174.421C2619.43 172.083 2622.66 169.412 2622.66 169.412C2622.66 169.412 2617.58 169.941 2614.72 170.529C2607.91 171.861 2597.91 178.494 2592.91 182.782C2584.67 189.811 2575.61 201.273 2579.69 211.432C2580.3 212.897 2581.23 214.817 2581.23 214.817ZM2627.04 227.059C2640.06 226.186 2652.27 222.416 2663.61 216.146C2674.75 209.93 2691.12 197.795 2689.45 183.515C2688.91 178.912 2685.9 175.416 2682.07 173.781C2677.09 171.617 2674.5 172.005 2668.15 173.862C2663.55 175.224 2661.48 176.034 2657.14 178.524C2644.35 185.942 2626.25 201.802 2616.41 214.47C2614.14 217.437 2611.84 220.781 2610.05 223.056C2608.89 224.448 2608.03 225.757 2608.13 226.116C2608.52 227.566 2621.95 227.426 2627.04 227.059ZM2593.87 251.392C2592.54 252.783 2591.13 256.239 2589.64 258.728C2588.86 260.049 2587.39 261.755 2586.44 262.428C2583.05 264.914 2580.19 265.029 2576.9 262.151C2572.32 258.129 2569.67 251.84 2569.48 245.743C2569.38 243.072 2569.81 240.156 2569.34 237.881C2568.49 234.1 2564.69 230.219 2562.65 226.593C2560.25 222.294 2558.31 214.865 2558.08 210.071C2557.23 195.095 2565.15 181.321 2575.42 170.429C2585.76 159.423 2599.27 150.281 2613.99 144.073C2627.89 138.202 2648.27 134.217 2663.54 139.511C2668.49 141.217 2675.43 145.445 2678.91 149.844C2679.64 150.777 2680.25 151.794 2681.02 152.271C2681.67 152.697 2683.46 152.871 2684.87 153.122C2689.75 153.969 2696.77 157.647 2699.63 160.096C2705.36 165.065 2708.53 169.808 2709.98 176.685C2712.91 190.514 2704.94 205.701 2695.86 214.928C2680.28 230.848 2664.91 242.013 2645 249.816C2636.27 253.231 2622.65 256.412 2612.72 255.517C2609.65 255.262 2606.46 254.459 2603.48 254.237C2601.96 254.104 2596.35 252.694 2595.76 252.247C2595.02 251.706 2594.07 251.2 2593.87 251.396L2593.87 251.392ZM2611.66 282.069C2612.26 282.18 2613.21 282.458 2614.01 282.743C2620.99 285.407 2623.85 291.866 2625.57 298.936C2629.56 315.399 2631.27 351.778 2631.92 366.055C2632.41 376.721 2632.67 387.28 2633.12 397.835C2633.5 406.788 2634.21 418.693 2632.36 427.099C2631.68 430.114 2629.66 433.588 2626.77 435.405C2623.44 437.521 2615.9 437.684 2611.76 436.829C2601.54 434.717 2598.21 428.153 2596.77 418.065C2593.3 393.973 2594.96 346.698 2597.01 326.746C2597.67 320.191 2600.18 299.08 2603.62 290.242C2604.78 287.234 2607.29 281.219 2611.66 282.073L2611.66 282.069ZM2296.82 318.219C2296.82 318.219 2281.68 319.288 2271.29 320.446C2258.03 321.859 2233.14 326.154 2218.8 331.308C2214.47 332.81 2205.72 336.48 2204.95 340.89C2204.18 345.5 2207.01 349.066 2210.19 352.795C2212.02 354.941 2222.4 364.908 2225.3 367.335C2237.49 377.483 2262.21 393.181 2280.45 400.802C2286.67 403.392 2297.03 407.091 2297.03 407.091C2297.03 407.091 2296.26 377.657 2296.41 348.674C2296.47 333.35 2296.82 318.222 2296.82 318.222V318.219ZM2574.11 329.935C2574.99 337.842 2572.93 352.795 2572.6 354.767C2571.95 359.307 2568.51 369.784 2567.96 371.072C2565.45 376.809 2562.64 382.415 2559.56 387.868C2554.59 396.788 2542.81 410.921 2535.8 416.966C2509.78 439.441 2469.48 452.242 2434.89 456.459C2411.44 459.293 2384.49 458.857 2359.62 454.277C2351.07 452.701 2338.36 449.793 2338.36 449.793C2338.36 449.793 2338.39 454.872 2337.97 458.461C2337.78 460.067 2336.54 464.373 2335.86 465.764C2334.03 469.493 2331.08 471.413 2326.77 472.227C2321.56 473.223 2316.04 473.518 2311.22 471.487C2303.33 468.143 2300.48 460.747 2299.11 452.271C2297.99 445.446 2296.82 433.588 2296.82 433.588C2296.82 433.588 2290.93 430.802 2285.99 428.346C2270.86 420.887 2256.46 411.886 2243.9 402.578C2240.42 400.01 2225.45 387.472 2222.13 384.342C2212.87 375.596 2204.54 366.836 2198.19 355.618C2193.25 346.861 2191.84 339.07 2195.58 329.795C2200.77 316.861 2219.34 307.098 2232.05 301.537C2241.4 297.423 2270.4 287.963 2282.46 286.22C2288.15 285.407 2296.98 283.842 2297.52 283.475C2297.72 283.336 2297.9 283.168 2298.06 282.976C2298.33 282.58 2298.8 269.757 2298.71 265.084C2298.61 260.471 2302.12 230.226 2303.25 223.833C2303.87 220.348 2306.49 207.03 2309.17 203.545C2310.91 201.188 2314.01 201.351 2316.54 202.927C2330.36 211.491 2334.55 241.281 2335.58 256.438C2336.2 265.665 2336.51 279.554 2336.51 279.554C2336.51 279.554 2352.37 279.095 2362.13 279.35C2371.6 279.583 2382.05 281.089 2391.89 282.65C2404.5 284.641 2429.05 289.998 2443.13 297.138C2454.74 303.002 2465.58 312.906 2469.09 323.383C2472.36 332.984 2471.86 339.606 2466.89 348.275C2461.31 358.067 2450.72 365.322 2439.99 365.922C2436.78 366.136 2424.77 364.531 2421.08 361.675C2419.61 360.517 2419.69 358.463 2420.75 357.072C2421.15 356.565 2426.75 353.632 2430.08 351.859C2431.64 351.029 2433.09 350.006 2434.4 348.815C2437.17 346.366 2439.64 343.702 2439.37 340.594C2438.98 336.528 2434.7 334.02 2430.59 332.418C2411.36 324.797 2372.97 318.444 2354.4 317.349C2347.14 316.92 2336.82 316.554 2336.82 316.554L2339 418.886C2339 418.886 2347.54 420.521 2354.27 421.62C2358.14 422.19 2374.5 423.662 2378.84 423.773C2411.95 424.646 2448.91 421.701 2479.29 407.347C2492.63 401.076 2504.86 393.284 2514.12 382.726C2526.34 368.715 2532.74 349.595 2531.05 329.621C2529.18 307.756 2513.79 281.87 2501.53 266.091C2469.07 224.385 2413.44 190.115 2364.51 170.018C2314.54 149.504 2265.16 137.68 2212.11 135.708C2198.45 135.22 2168.63 135.911 2153.58 140.074C2151.41 140.677 2149.25 141.405 2147.25 141.835C2145.66 142.219 2143.2 143.266 2142.51 143.806C2142.14 144.139 2141.74 144.535 2141.74 144.535C2141.74 144.535 2142.68 145.046 2143.56 145.442C2145.16 146.145 2151.89 146.537 2155.36 147.169C2158.46 147.758 2161.72 149.411 2162.98 151.698C2164.21 153.855 2164.38 155.549 2162.9 157.347C2159.48 161.524 2146.63 160.792 2140.98 159.918C2135.1 158.964 2127.79 157.184 2126.44 152.064C2124.89 146.041 2127.73 140.136 2130.83 134.672C2137.05 123.747 2145.94 118.061 2159.01 114.513C2177.52 109.433 2200.91 105.867 2218.4 105.197C2258 103.725 2295.46 110.613 2333.81 122.267C2355.76 128.878 2384.53 140.003 2405.56 150.133C2420.63 157.388 2444.43 170.777 2457.8 179.526C2462.01 182.301 2486.68 200.392 2490.5 203.574C2498.5 210.1 2508.96 219.475 2516.51 226.985C2531.16 241.484 2549.37 263.693 2558.25 281.311C2560.35 285.558 2562.02 289.709 2564.75 294.6C2565.69 296.265 2569.75 306.302 2570.42 309.21C2571.08 312.074 2572.06 316.291 2572.2 316.443C2572.41 317.997 2574.25 326.595 2574.11 329.935ZM2744.7 337.372C2745.44 337.446 2745.62 337.475 2746.31 337.575C2758.43 339.222 2770.31 341.397 2779.39 345.459C2787.83 349.196 2792.79 353.894 2797.3 362.292C2804.16 375.027 2804.62 392.837 2798.42 406.329C2793.77 416.355 2783.59 424.779 2774.32 429.249C2764.64 433.925 2755.18 436.137 2744.27 437.377C2725.25 439.46 2704.64 435.538 2687.49 427.247C2677.35 422.301 2664.96 413.788 2658.71 402.804C2654.11 394.738 2654.25 384.283 2659.85 376.64C2668.75 364.468 2687.83 361.786 2702.22 362.296C2713.18 362.703 2732.9 366.107 2743.32 369.784C2746.22 370.831 2756.85 374.975 2758.71 376.843C2760.01 378.186 2760.87 380.084 2760.28 381.882C2757.88 389.148 2740.23 392.981 2735.14 393.739C2721.46 395.822 2714.38 390.669 2698.84 384.546C2694.99 383.044 2689.85 381.375 2685.9 381.009C2678.87 380.339 2670.35 382.282 2669.02 389.992C2668.33 393.965 2672.98 397.661 2676.54 399.196C2684.87 402.804 2691.64 404.073 2699.86 404.206C2724.06 404.572 2751.27 400.599 2771.09 386.577C2773.83 384.657 2776.47 381.812 2776.52 378.245C2776.52 377.79 2775.86 373.95 2774.63 373.554C2774.44 373.473 2774.25 373.562 2774.11 373.532C2773.65 373.399 2772.89 372.152 2772.24 371.327C2770.82 369.588 2765.07 367.121 2763.94 366.643C2750.6 361.086 2725.94 358.382 2713.21 357.339C2699.89 356.199 2678.93 354.431 2673.88 353.698C2668.7 352.969 2663.07 351.941 2658.56 349.921C2654.08 347.886 2649.66 343.335 2648.34 338.308C2646.02 329.225 2649 318.071 2654.04 310.793C2667.29 291.777 2698.27 284.57 2721.46 281.707C2743.88 278.914 2780.14 278.943 2802.16 290.638C2805.57 292.447 2807.32 294.141 2806.58 297.778C2805.16 304.597 2799.99 308.988 2793.8 310.916C2787.29 312.987 2773.79 313.79 2767.87 314.156C2741.31 315.651 2709.22 314.867 2683.94 321.767C2681.96 322.336 2678.54 323.221 2677.41 324.478C2673.46 328.77 2684.76 329.987 2687.2 330.516C2687.91 330.657 2688.06 330.686 2688.8 330.76L2744.7 337.372ZM2827.55 436.585C2816.83 432.652 2814.4 415.36 2813.9 406.614C2812.2 378.134 2819.74 338.511 2829.31 311.822C2832.05 304.219 2835.98 291.807 2844.5 292.506C2850.36 293.024 2854.53 297.538 2857.82 302.17C2866.22 314.005 2877.27 330.046 2884.59 341.212C2892.78 353.731 2900.64 366.34 2908.37 377.75C2909.32 379.13 2910.22 380.473 2911.25 381.323C2912.66 382.452 2913.92 382.515 2914.49 381.468C2914.75 381.061 2914.25 366.673 2913.89 363.787C2913.29 359.2 2913.02 355.478 2912.49 351.515C2911.07 340.006 2907.4 323.809 2904.52 312.854C2901.35 300.605 2897.47 287.833 2894.57 275.976C2893.65 272.129 2892.78 268.233 2892.81 264.566C2892.84 259.261 2896.25 256.327 2901.79 258.307C2912.69 262.147 2927.14 285.791 2931.35 294.001C2932.79 296.776 2938.47 310.875 2939.74 314.83C2944.26 328.37 2947 341.212 2948.25 355.977C2949.45 370.321 2948.44 391.22 2942.37 405.364C2940.14 410.565 2935.57 417.565 2931.76 421.091C2925.79 426.618 2913.89 430.936 2905.69 426.263C2896.72 421.183 2881.98 395.682 2879.46 391.324C2870.91 376.407 2856.19 347.239 2853.91 343.968C2853.41 343.247 2852.77 342.555 2851.63 342.207C2850.76 341.956 2850.41 343.754 2850.19 344.923C2848.73 353.417 2847.72 393.14 2847.7 394.25C2847.45 400.935 2847.13 417.332 2845.2 425.408C2843.94 430.68 2842.65 435.009 2837.8 437.225C2834.36 438.779 2831.73 438.128 2827.55 436.585ZM2975.35 434.043C2974.19 433.163 2972.32 431.25 2970.95 429.715C2970.74 429.504 2966.88 423.732 2966.12 421.953C2965.45 420.421 2964.94 419.311 2964.45 418.031C2960.95 408.982 2961.03 400.069 2962.98 390.347C2964.78 381.275 2966.49 380.876 2971.15 368.423C2971.44 367.742 2971.58 367.15 2971.69 366.399C2971.88 364.694 2969.11 353.214 2968.95 349.525C2968.76 343.894 2973.13 339.906 2980.45 339.129C2981.12 339.07 2981.63 339.081 2982.11 338.937C2985.03 338.226 2986.9 332.64 2988.5 328.156C2990.73 321.859 2994.2 312.259 2994.2 312.259C2994.2 312.259 2984.95 310.124 2980 308.255C2974.46 306.173 2970.28 303.479 2967.78 298.411C2964.78 292.477 2966.75 289.184 2972.96 287.264C2975.24 286.531 2993.2 283.087 2998.87 282.284C3005.96 281.248 3012.62 280.364 3019.35 279.531C3025.21 278.821 3052.09 275.713 3060.64 275.935C3073.68 276.313 3082.14 281.677 3089.76 292.699C3093.86 298.581 3096.66 305.573 3090.47 309.362C3080.97 315.122 3050.19 315.559 3044.55 315.621C3037.41 315.664 3030.28 315.643 3023.15 315.559L3016.88 336.48C3016.88 336.48 3038.93 336.243 3051.32 336.195C3054.33 336.195 3057.34 336.358 3059.03 336.713C3065.36 338.115 3067.55 342.969 3067.8 349.973C3068.15 358.16 3066.6 361.93 3060.07 363.025C3056.69 363.565 3018.81 363.787 3013.68 364.386C3010.47 364.734 3007.08 365.241 3007.08 365.241C3007.08 365.241 3004.35 372.374 3001.97 379.577C2999.57 387.087 2997.51 394.735 2997.51 394.735C2997.51 394.735 2999.44 394.816 3001.03 394.816C3003.7 394.838 3006.4 394.453 3008.52 394.087C3020.08 391.971 3037.26 389.433 3051.35 387.217C3058.93 386.007 3062.75 385.471 3066.73 390.487C3070.18 394.927 3071.97 398.649 3072.21 404.013C3072.43 409.063 3068.57 412.404 3063.87 416C3048.96 427.38 3023.49 439.715 3004.51 441.827C2995.74 442.811 2993.61 441.838 2985.93 439.837C2984.46 439.46 2979.15 436.981 2979.2 436.718C2979.2 436.718 2976.32 434.805 2975.35 434.043H2975.35ZM3214.84 328.911C3205.07 337.079 3192.46 353.731 3186.44 362.378C3178.39 373.835 3170.82 386.965 3163.58 397.136C3162.03 399.418 3157.36 407.598 3157.52 407.872C3157.84 408.453 3162.54 408.268 3167.37 407.458C3177.66 405.73 3191.65 398.516 3199.11 392.563C3210.49 383.447 3218.42 370.931 3222.16 356.292C3223.82 349.636 3224.66 335.685 3219.94 329.477C3219.02 328.293 3216.66 327.357 3214.84 328.911ZM3137.29 448.516C3137.29 448.516 3134.2 457.58 3131.93 464.691C3128.01 476.963 3119.4 510.012 3117.41 520.286C3114.41 535.528 3105.86 575.466 3105.42 576.32C3104.82 577.478 3104.42 577.845 3102.98 578.766C3099.46 580.83 3098.05 580.149 3093.79 577.874C3088.25 574.966 3083.39 572.003 3079.24 566.524C3070.9 555.706 3072.9 535.343 3074.52 523.397C3080.25 481.606 3086.04 463.23 3101.96 421.635C3102.22 420.921 3102.22 420.758 3101.89 420.129C3096.93 409.574 3094.26 396.821 3094.26 386.521C3094.29 353.916 3113.05 321.659 3134.09 295.751C3135.67 293.779 3146 281.426 3150.69 281.67C3155.39 281.892 3156.15 287.367 3155.45 291.94C3153.09 306.998 3142.48 322.34 3135.23 335.041C3127.07 349.233 3125.3 355.074 3121.31 368.09C3120.67 370.125 3119.07 379.633 3119.15 380.854C3119.31 384.346 3120.07 388.756 3120.07 388.756C3120.07 388.756 3133.33 370.202 3142.09 358.752C3145.95 353.61 3150.03 348.631 3154.3 343.828C3158.34 339.277 3173.89 323.132 3178.37 318.873C3187.78 309.906 3191.95 306.176 3202.12 300.901C3210.18 296.735 3217.43 295.699 3225.29 300.893C3237.76 309.069 3243.19 326.373 3244.6 340.405C3246.24 357.165 3242.81 376.026 3235.4 390.38C3226.62 407.509 3214.63 419.844 3198.32 430.632C3181.66 441.668 3162.09 449.179 3142.91 448.731C3140.32 448.668 3137.29 448.516 3137.29 448.516Z" fill="white" fill-opacity="0.4"/>
<path d="M4023.29 299.374C4021.02 298.529 4017.32 294.264 4023.57 282.338L4038.06 251.952C4038.62 251.094 4037.49 249.958 4036.63 250.526L4023.85 263.309C4017.88 269.555 4007.66 287.171 4005.66 290.579L3990.33 316.145C3992.03 316.145 3992.89 317.848 3992.32 319.274L3978.13 343.136C3974.72 349.105 3980.97 353.08 3981.82 351.654C4003.98 315.867 4017.04 318.706 4017.04 318.706L4024.43 301.38C4024.7 300.812 4024.14 299.676 4023.29 299.387" fill="white" fill-opacity="0.4"/>
<path d="M4073.86 0.0120848C3946.62 0.0120848 3843.8 103.11 3843.8 230.07C3843.8 281.19 3860.55 328.625 3888.67 366.684C3898.32 362.419 3903.72 356.173 3907.42 351.63L3950.3 296.813C3951.16 295.677 3952.3 294.819 3953.71 294.251L3960.25 291.412L4030.69 201.943L4040.91 193.993L4061.92 164.742C4062.49 163.884 4063.05 163.316 4063.91 162.748L4073 156.211C4075.27 154.508 4078.4 154.508 4080.67 156.211L4091.75 163.884C4097.72 168.137 4102.54 173.537 4105.67 180.074L4150.26 258.186C4151.12 259.889 4151.97 260.735 4153.67 261.593C4162.48 265.858 4167.59 266.704 4179.24 279.197C4184.64 284.875 4207.92 311.009 4240.59 351.618C4245.13 357.864 4250.81 362.975 4259.05 366.672C4287.17 328.613 4303.93 281.178 4303.93 230.058C4304.22 103.098 4201.11 0 4073.87 0L4073.86 0.0120848ZM3905.73 242.841L3890.68 238.008L3881.59 250.791V235.169L3866.54 230.336L3881.59 225.503V209.881L3890.68 222.664L3905.73 217.831L3896.64 230.614L3905.73 242.829V242.841ZM3902.32 294.251L3897.49 309.306L3892.66 294.251H3877.04L3889.82 285.165L3884.99 270.111L3897.77 279.197L3910.55 270.111L3905.72 285.165L3918.5 294.251H3902.31H3902.32ZM3905.16 175.241L3910 190.295L3897.21 181.21L3884.43 190.295L3889.26 175.241L3876.48 166.155H3892.1L3896.93 151.101L3901.77 166.155H3917.39L3905.17 175.241H3905.16ZM3930.44 141.447L3921.35 128.664L3906.3 133.497L3915.38 120.714L3906.3 107.931L3921.35 112.764L3930.44 99.9807V115.603L3945.49 120.436L3930.44 125.269V141.459V141.447ZM3969.63 86.6298L3964.8 101.684L3959.97 86.6298H3944.35L3957.13 77.5439L3952.3 62.4894L3965.08 71.5753L3977.86 62.4894L3973.03 77.5439L3985.81 86.6298H3969.62H3969.63ZM4019.05 61.3537L4009.96 74.1367V58.5144L3994.91 53.6815L4009.96 48.8486V33.2262L4019.05 46.0092L4034.1 41.1763L4025.02 53.9593L4034.1 66.7424L4019.05 61.3416V61.3537ZM4081.82 47.157L4086.65 62.2115L4073.87 53.1257L4061.08 62.2115L4065.92 47.157L4053.13 38.0712H4068.76L4073.59 23.0167L4078.42 38.0712H4094.04L4081.83 47.157H4081.82ZM4138.06 58.5144V74.1367L4128.97 61.3537L4113.92 66.1866L4123.01 53.4036L4113.92 40.6205L4128.97 45.4534L4138.06 32.6704V48.2928L4153.11 53.1257L4138.06 58.5264V58.5144ZM4242.02 217.565L4257.07 222.398L4266.16 209.615V225.237L4281.21 230.07L4266.16 234.903V250.526L4257.07 237.743L4242.02 242.575L4251.1 229.792L4242.02 217.577V217.565ZM4182.95 101.684L4178.11 86.6298H4162.49L4175.27 77.5439L4170.44 62.4894L4183.22 71.5753L4196.01 62.4894L4191.17 77.5439L4203.96 86.6298H4188.33L4182.95 101.684ZM4217.31 141.447V125.825L4202.25 120.992L4217.31 116.159V100.536L4226.39 113.319L4241.45 108.487L4232.36 121.27L4241.45 134.053L4226.39 129.22L4217.31 141.435V141.447ZM4245.71 166.155L4250.55 151.101L4255.38 166.155H4271L4258.22 175.241L4263.05 190.295L4250.27 181.21L4237.49 190.295L4242.32 175.241L4229.53 166.155H4245.73H4245.71ZM4255.37 294.251L4250.53 309.306L4245.7 294.251H4230.08L4242.86 285.165L4238.03 270.111L4250.81 279.197L4263.59 270.111L4258.76 285.165L4271.54 294.251H4255.35H4255.37Z" fill="white" fill-opacity="0.4"/>
<path d="M4157.36 363.277C4158.49 361.574 4160.2 357.309 4156.79 349.081L4146.57 321.811C4145.15 318.404 4148.27 316.132 4150.26 318.404C4150.26 318.404 4169.58 340.563 4174.41 349.927L4183.78 365.549C4192.02 366.117 4214.46 366.685 4236.33 366.685C4234.06 364.413 4232.06 362.142 4230.36 359.58C4193.43 313.571 4169.86 288.005 4169.57 288.005C4162.19 279.765 4158.49 278.351 4152.81 275.79C4151.96 275.5 4151.11 274.932 4150.25 274.654V281.758C4150.25 282.616 4149.12 283.172 4148.55 282.326L4094.02 186.611L4093.73 186.321C4091.46 181.778 4088.05 177.803 4084.08 174.963L4078.68 171.278L4052.83 231.206C4056.81 231.206 4059.65 235.471 4057.94 239.156L4034.08 294.541H4056.23C4064.75 294.541 4073.26 296.245 4080.94 299.374L4086.62 301.646C4086.62 301.646 4069.01 337.711 4069.01 356.741C4069.01 360.148 4069.58 363.555 4070.43 366.963H4110.76L4108.77 355.605C4109.34 355.315 4133.48 361.006 4157.35 363.277" fill="white" fill-opacity="0.4"/>
<path d="M3850.32 427.18C3850.32 386.282 3807.15 366.685 3755.46 366.685C3700.37 366.685 3649.8 391.115 3631.34 428.884C3626.23 438.828 3623.67 450.185 3623.67 461.542C3623.38 471.486 3626.23 481.14 3631.34 489.09C3639.29 500.737 3653.5 508.119 3674.23 508.119C3699.8 508.119 3719.97 494.201 3719.97 469.77C3719.97 469.77 3720.26 462.956 3712.29 462.956C3705.76 462.956 3704.05 467.499 3704.34 469.77C3705.2 488.8 3693.83 504.132 3673.67 504.132C3650.94 504.132 3641.58 484.813 3641.58 464.37C3641.58 422.335 3673.39 394.22 3706.34 382.005C3721.96 376.036 3738.15 373.197 3754.62 373.487C3792.11 373.487 3822.79 387.973 3822.79 426.31C3822.79 458.401 3795.81 485.949 3763.43 488.232L3764.84 483.967C3771.38 460.395 3779.6 434.551 3792.96 415.231C3793.8 414.095 3794.94 412.102 3796.64 410.398L3794.65 408.127C3791.81 409.83 3789.25 411.824 3786.41 413.805C3724.49 462.086 3722.5 598.422 3639.85 598.422C3637.01 598.422 3634.17 598.144 3631.33 597.854C3614 595.015 3604.92 583.368 3604.92 567.467C3604.92 564.338 3606.05 559.795 3606.05 557.524C3606.34 552.981 3602.36 549.006 3597.81 549.006H3597.52C3590.14 549.006 3587.01 554.974 3587.01 563.202C3586.45 587.343 3604.34 601.262 3631.61 603.811C3634.74 604.101 3637.58 604.101 3640.98 604.101C3705.46 604.101 3744.94 555.252 3761.7 496.17C3770.22 495.312 3778.75 493.331 3786.97 490.769C3816.52 482.529 3850.31 462.364 3850.31 427.144" fill="white" fill-opacity="0.4"/>
<path d="M4464.67 441.377H4441.95L4436.84 453.302L4428.04 473.467H4417.52L4414.39 480.282H4425.47L4412.12 509.533C4402.75 530.266 4387.98 550.431 4379.46 550.431C4377.47 550.431 4376.34 549.574 4376.34 547.87C4376.34 545.876 4376.9 544.173 4378.88 539.062C4381.45 532.815 4385.99 523.73 4389.11 517.193C4393.94 507.539 4401.32 492.485 4401.32 485.103C4401.32 477.72 4396.49 471.752 4387.4 471.752C4376.89 471.752 4367.53 477.998 4358.72 487.084L4364.4 473.455H4343.1L4325.77 513.218C4318.67 527.137 4304.47 550.419 4295.66 550.419C4293.67 550.419 4293.11 549.284 4293.11 547.29C4293.39 545.586 4293.68 544.161 4294.53 542.457C4295.37 540.754 4305.61 516.323 4305.61 516.323L4324.64 473.153H4301.63L4283.17 515.187C4277.49 528.248 4263 550.407 4253.92 550.407C4252.49 550.697 4250.79 549.549 4250.79 547.846V546.988C4250.79 544.716 4252.49 540.451 4253.92 537.612L4263.57 516.311L4283.46 473.141H4260.45L4255.91 483.085C4252.5 489.621 4246.83 497.571 4237.74 497.571C4233.47 497.571 4231.2 495.868 4230.36 494.164C4228.93 479.678 4219.85 471.728 4206.22 471.728C4187.19 471.728 4173.84 482.807 4165.04 496.436C4159.07 505.812 4154.53 516.033 4151.41 526.545C4143.17 539.896 4134.65 550.407 4127.84 550.407C4126.14 550.407 4125 549.549 4125 547.278C4125 545.006 4127.27 539.896 4128.12 537.902L4143.17 506.089C4147.44 496.146 4150.28 489.899 4150.28 483.363C4150.28 476.826 4145.44 471.715 4137.78 471.715C4126.99 471.715 4115.35 477.962 4105.97 488.184C4106.25 486.48 4106.25 485.054 4106.25 483.351C4106.25 475.678 4102.55 471.703 4094.6 471.703C4084.66 471.703 4074.44 477.672 4065.35 488.172L4071.32 473.407H4050.59L4032.98 513.17C4024.74 531.909 4011.11 550.371 4003.73 550.371C4002.03 550.371 4000.89 549.513 4000.89 547.242C4000.89 543.544 4004.87 534.749 4006.29 531.051L4029.59 478.228C4031.29 474.253 4020.21 471.691 4006.01 471.691C3991.82 471.691 3976.47 478.796 3965.68 488.159C3958.01 494.696 3952.33 497.813 3949.49 497.813C3948.07 497.813 3947.5 496.955 3947.5 496.11C3947.5 492.98 3955.17 483.894 3955.17 476.802C3955.17 473.673 3953.47 471.401 3949.2 471.401C3940.96 471.401 3931.03 479.351 3923.93 487.592L3929.9 473.105H3909.44L3891.84 512.868C3883.6 531.607 3869.68 551.217 3862.02 551.217C3860.31 551.217 3859.18 550.359 3859.18 548.087C3859.18 544.39 3862.88 535.872 3865.15 531.329L3888.44 478.506C3890.15 474.531 3879.07 471.969 3864.87 471.969C3843.85 471.969 3823.4 486.166 3812.61 500.652C3800.69 516.275 3792.45 533.033 3792.45 546.662C3792.16 557.741 3797.85 564.556 3809.21 564.556C3821.99 564.556 3832.21 554.612 3837.89 546.952C3837.6 548.377 3837.32 550.069 3837.03 551.495C3837.03 559.167 3840.16 564.556 3849.25 564.556C3857.49 564.556 3868.28 557.741 3876.79 546.952L3869.69 563.142H3891.85L3913.72 513.725C3920.82 497.535 3929.05 489.295 3931.33 489.295C3932.19 489.295 3932.47 489.585 3932.47 490.153C3932.47 491.857 3929.06 496.4 3929.06 500.665C3929.06 504.93 3931.33 508.047 3937.3 508.047C3942.14 508.047 3947.25 505.775 3952.07 502.658C3940.99 517.713 3933.33 533.613 3933.33 546.674C3933.04 557.753 3938.73 564.568 3950.09 564.568C3962.01 564.568 3973.09 553.21 3979.34 545.538C3979.06 547.242 3979.06 548.945 3979.06 550.939C3979.06 558.321 3983.32 564.568 3991.84 564.568C4001.22 564.568 4008.88 558.599 4018.25 547.242L4011.15 563.142H4033.88L4054.61 515.997C4063.69 495.554 4075.91 484.474 4082.16 484.474C4083.57 484.184 4085 485.332 4085.27 487.036V487.604C4085 489.875 4084.43 492.147 4083.28 494.14L4053.46 563.154H4076.76L4098.06 515.151C4107.14 494.418 4117.09 484.474 4124.76 484.474C4127.03 484.474 4127.89 485.61 4127.89 488.159C4127.6 490.721 4127.03 493.56 4125.89 495.832L4105.44 539.292C4103.46 543.545 4102.31 548.1 4102.03 552.642C4102.03 559.179 4105.73 565.135 4115.95 565.135C4129.3 565.135 4139.25 555.192 4150.6 540.137V543.267C4151.45 555.192 4158.27 565.703 4175.88 565.703C4196.61 565.703 4213.37 551.217 4223.59 528.502C4227.29 520.262 4230.13 511.744 4230.97 502.936C4233.24 504.072 4235.81 504.64 4238.36 504.362C4241.76 504.362 4245.17 503.504 4248.3 501.8L4244.6 509.472C4240.34 518.28 4235.79 527.934 4232.39 535.884C4230.12 540.717 4228.69 545.828 4228.41 551.217C4228.41 559.457 4232.95 565.135 4242.33 565.135C4251.71 565.135 4264.2 556.328 4273.29 544.124H4273.58C4273.01 546.674 4272.72 549.235 4272.72 551.797C4272.72 558.611 4274.71 565.148 4284.36 565.148C4295.44 565.148 4303.96 557.197 4312.2 547.254L4305.1 563.154H4328.1L4346.56 521.688C4357.08 498.115 4367.3 484.196 4376.95 484.196C4378.65 484.196 4380.08 485.332 4380.08 487.036V487.604C4380.08 491.579 4374.4 502.368 4369.29 513.17C4364.46 523.113 4361.05 530.496 4358.5 536.464C4356.23 541.297 4354.8 546.686 4354.53 552.087C4354.53 559.191 4358.5 564.87 4367.31 564.87C4380.66 564.87 4394.01 552.087 4401.1 542.433C4399.4 547.266 4398.55 551.809 4398.55 556.92C4398.55 570.27 4406.5 576.795 4417.58 576.795C4424.97 576.795 4432.07 574.245 4438.32 569.98C4447.13 564.012 4453.94 554.926 4459.9 546.408L4455.92 542.711C4450.52 550.383 4444.27 557.765 4438.03 562.308C4434.62 565.148 4430.64 566.573 4426.38 566.851C4421.55 566.851 4418.71 564.29 4418.71 558.333C4418.71 552.377 4421.55 544.136 4425.81 533.057C4426.1 532.779 4432.35 518.86 4438.03 505.51C4442.86 494.152 4447.97 483.073 4448.82 480.801H4463.87L4467 473.987H4452.24L4464.73 441.329L4464.67 441.377ZM3819.38 550.443C3816.25 550.443 3813.98 549.308 3813.98 545.043C3814.26 533.963 3823.35 514.088 3834.99 498.176C3843.23 487.096 3853.74 479.146 3865.1 479.146L3850.61 511.237C3839.82 535.377 3828.18 550.431 3819.37 550.431L3819.38 550.443ZM3960.81 550.431C3957.68 550.431 3955.41 549.296 3955.14 545.031C3955.43 533.951 3964.51 514.076 3976.15 498.164C3984.39 487.084 3994.9 479.134 4006.26 479.134L3991.77 511.224C3980.98 535.933 3969.9 550.419 3960.81 550.419V550.431ZM4212.17 487.93C4211.61 500.145 4200.82 529.964 4188.03 547.58C4182.92 554.684 4178.66 556.956 4174.68 556.956C4169.28 556.956 4167.87 552.691 4168.71 546.166C4169.85 535.087 4179.23 508.965 4192.01 491.071C4197.98 482.831 4201.95 479.424 4206.49 479.424C4211.04 479.424 4212.17 483.121 4212.17 487.942" fill="white" fill-opacity="0.4"/>
<path fill-rule="evenodd" clip-rule="evenodd" d="M1235.3 347.887C1200.89 347.887 1172.98 320.016 1172.98 285.639C1172.98 251.262 1200.89 223.388 1235.3 223.388C1247.87 223.388 1259.58 227.106 1269.37 233.502L1439.15 347.887H1235.3ZM1252.53 207.808C1223.7 189.093 1215.5 150.56 1234.23 121.74C1252.95 92.9228 1291.5 84.7296 1320.33 103.445C1330.48 110.006 1338.48 119.39 1343.36 130.443L1430.12 328.222L1252.53 207.808ZM1702.58 347.947C1737.08 347.947 1765.05 320.051 1765.05 285.636C1765.05 251.22 1737.08 223.324 1702.58 223.324C1689.98 223.324 1678.25 227.046 1668.44 233.448L1498.27 347.95H1702.58V347.947ZM1685.35 207.805C1714.25 189.074 1722.47 150.5 1703.7 121.654C1684.93 92.8089 1646.3 84.6094 1617.4 103.344C1607.23 109.907 1599.21 119.301 1594.32 130.37L1507.36 328.336L1685.35 207.805V207.805ZM1493.71 90.6855C1489.26 94.1317 1477.06 96.0052 1479.7 117.721L1506.05 301.956L1593.9 101.129C1607.95 69.6787 1593.76 32.833 1562.23 18.8327C1530.68 4.82925 1493.73 18.9719 1479.69 50.422C1475.13 60.5781 1473.4 71.7737 1474.67 82.8309L1491.23 82.8024C1500.61 83.2676 1505.55 85.7613 1493.71 90.6855V90.6855ZM1343.93 101.179C1329.92 69.7578 1344.08 32.9438 1375.55 18.9561C1407.02 4.96849 1443.9 19.0985 1457.91 50.5201C1462.86 61.5542 1464.46 73.7944 1462.53 85.7297L1431.61 301.829L1343.93 101.179ZM1725.41 588.291C1715.31 592.398 1700.31 596.56 1686.41 596.56C1622.85 596.56 1571.32 547.765 1571.32 487.577C1571.32 427.385 1622.85 378.593 1686.41 378.593C1700.08 378.593 1715.08 381.926 1725.41 386.66V428.325C1713.83 420.706 1700.27 416.656 1686.41 416.676C1647.17 416.676 1615.36 448.418 1615.36 487.573C1615.36 526.726 1647.17 558.467 1686.41 558.467C1700.74 558.467 1714.24 554.233 1725.41 546.945V588.291ZM1343.01 385.714H1385.26V593.949L1255.19 475.162V589.392H1212.94V381.21L1343.01 499.998V385.714V385.714ZM1526.85 480.548C1539.74 470.991 1550.98 461.87 1550.87 437.816C1550.73 406.157 1525.11 385.518 1493.34 385.518H1409.5V589.591H1503.54C1536.85 589.591 1562.19 564.325 1562.19 531.122C1562.19 497.925 1534.75 483.434 1526.85 480.548V480.548ZM1451.98 416.369L1483.39 416.373C1498.09 416.373 1510.01 428.253 1510.01 442.908C1510.01 457.56 1498.09 469.443 1483.39 469.443H1451.98V416.369ZM1490.22 558.958H1451.99V499.931L1490.22 499.757C1506.61 499.757 1519.9 513.011 1519.9 529.359C1519.9 545.708 1506.61 558.958 1490.22 558.958V558.958Z" fill="white" fill-opacity="0.4"/>
<path d="M5370.04 37.4625C5345.84 39.5398 5325.43 45.952 5307.03 57.2141C5299.32 61.8833 5293.64 66.39 5285.48 74.3195C5265.73 93.4479 5254.03 116.975 5249.71 146.119C5247.96 158.04 5248.47 180.727 5250.84 192.206C5257.64 225.685 5275.49 252.86 5302.7 271.095C5318.96 282.113 5337.58 289.103 5359.41 292.589C5370.83 294.396 5393.39 294.396 5404.81 292.589C5436.37 287.532 5461.46 274.978 5481.15 254.387C5505.53 228.9 5516.92 195.412 5514.74 155.746C5512.09 105.893 5480.98 63.6264 5434.57 46.1959C5415.45 39.1063 5390.07 35.6743 5370.05 37.4716L5370.04 37.4625ZM5392.61 119.223C5403.45 121.59 5415 128.733 5421.52 137.232C5428.57 146.516 5431.59 155.629 5431.59 167.279C5431.59 181.513 5427.44 191.529 5417.14 201.779C5411.85 207.18 5409.6 208.824 5404.26 211.352C5388.95 218.577 5374.67 218.442 5359.99 211.172C5347.95 205.211 5339.62 195.818 5335.24 183.147C5327.15 159.847 5337.72 134.306 5359.99 123.333C5370.28 118.275 5381.3 116.866 5392.49 119.178L5392.61 119.223ZM5049.62 39.043C5007.86 43.7664 4972.47 68.6027 4953.4 106.39C4944.33 124.57 4940 143.698 4940 165.979C4940.05 194.391 4947.2 218.632 4962 240.939C4968.52 250.675 4984.1 266.091 4993.67 272.549C5007.63 281.769 5023.36 287.979 5039.86 290.783C5053.08 293.041 5072.2 292.526 5083.07 289.717C5098.2 285.726 5110.52 279.241 5120.65 269.912C5123.46 267.437 5125.65 265.848 5125.77 266.362C5126.61 268.837 5132.3 276.432 5135.67 279.864C5143.44 287.577 5151.76 290.341 5164.93 289.799C5185.35 288.896 5195.09 279.864 5200.32 257.286C5201.79 250.756 5201.84 247.893 5202.13 175.1L5201.68 87.713C5200.44 69.0904 5197.34 59.4629 5190.09 51.5334C5180.01 40.6055 5159.98 37.9141 5144.11 45.5727C5140.01 47.5415 5130.27 56.4284 5126.96 61.1608L5125.44 63.3555L5119.87 58.6321C5116.53 55.7395 5113 53.0696 5109.31 50.6393C5094.23 40.9035 5071.95 36.6317 5049.62 39.1063V39.043ZM5087.31 116.713C5094.52 119.068 5101.03 123.166 5106.27 128.643C5115.73 137.982 5119.89 147.609 5120.5 161.337C5120.95 171.271 5119.87 176.473 5115.27 185.721C5109.41 197.534 5097.03 207.397 5083.66 210.982C5077.7 212.554 5065.94 212.788 5060.2 211.379C5038.53 206.259 5023.07 187.862 5021.83 165.807C5020.65 144.71 5033.08 125.636 5053.39 117.417C5060.19 114.708 5063.34 114.256 5073.07 114.491C5080.11 114.672 5082.8 115.123 5087.3 116.686V116.631L5087.31 116.713ZM4968.43 362.637C4964.79 363.971 4961.65 366.383 4959.41 369.551C4957.18 372.718 4955.97 376.491 4955.94 380.365C4955.94 389.704 4961.06 414.179 4966.63 431.284C4981.26 476.016 5007.19 515.005 5044.82 548.204C5071.32 571.613 5098.37 587.816 5129.7 599.186C5190.35 621.015 5264.27 620.229 5324.18 596.928C5378.92 575.659 5428.43 533.076 5459.65 480.243C5476.26 451.36 5487.09 419.52 5491.55 386.498C5492.45 379.634 5492.39 378.342 5491.28 374.684C5489.52 369.765 5485.96 365.697 5481.32 363.305C5478.45 361.896 5476.31 361.788 5441.32 361.562C5400.53 361.336 5400.2 361.336 5394.51 366.005C5390.57 369.166 5389.16 372.472 5386.8 382.939C5379.99 413.438 5366.32 438.482 5343.76 461.548C5325.82 479.791 5308.27 491.767 5286.6 500.428C5254.76 513.253 5215.09 515.393 5179.83 506.452C5135.73 495.199 5094.95 461.548 5074.06 419.065C5068.44 407.836 5064.24 395.945 5061.57 383.671C5059.1 372.056 5058.65 371.153 5054.59 367.017C5049.01 361.444 5048.73 361.445 5007.56 361.598C4978.37 361.598 4970.94 361.824 4968.52 362.727H4968.41L4968.43 362.637ZM5462.8 383.002L5465.51 387.157L5468.22 382.939C5472.55 376.617 5473.27 377.204 5473.27 387.094C5473.27 393.957 5473.05 395.366 5472.14 395.366C5471.24 395.366 5471.01 394.192 5470.91 389.514V383.716L5469.22 385.91C5464.83 391.645 5465.61 391.483 5462.9 387.428L5460.48 383.815V389.613C5460.48 394.337 5460.25 395.466 5459.35 395.466C5458.45 395.466 5458.22 394.057 5458.22 387.193C5458.22 377.457 5458.85 376.951 5462.73 383.129L5462.8 383.002Z" fill="white" fill-opacity="0.4"/>
<path d="M6098.58 414.304V473.124H6018.89V414.304H5988V572.364H6018.89V505.492H6098.58V572.364H6129.3V414.304H6098.58Z" fill="white" fill-opacity="0.4"/>
<path d="M6289 414.304V496.784C6289 520.772 6286.54 546.24 6247.27 546.24C6208 546.24 6205.21 521.43 6205.21 496.784V414.304H6174.48V498.756C6174.48 536.381 6185 576.8 6247.44 576.8C6309.71 576.8 6320.22 535.888 6320.22 498.756V414.304H6289Z" fill="white" fill-opacity="0.4"/>
<path d="M6546.47 414.304V572.364H6653.1V540.325H6577.36V414.304H6546.47Z" fill="white" fill-opacity="0.4"/>
<path d="M6747.41 409.868C6699.93 409.868 6662.63 446.343 6662.63 493.005C6662.63 539.503 6699.93 575.979 6747.41 575.979C6794.9 575.979 6832.19 539.503 6832.19 493.005C6832.03 446.343 6794.9 409.868 6747.41 409.868ZM6747.41 545.418C6717.35 545.418 6693.69 522.251 6693.69 492.841C6693.69 463.266 6717.35 440.264 6747.41 440.264C6777.48 440.264 6800.98 463.431 6800.98 492.841C6800.98 522.416 6777.48 545.418 6747.41 545.418Z" fill="white" fill-opacity="0.4"/>
<path d="M6844.68 414.304V446.507H6894.3V572.364H6925.35V446.507H6973.82V414.304H6844.68Z" fill="white" fill-opacity="0.4"/>
<path d="M6481.9 489.391C6491.43 481.997 6496.85 470.989 6496.85 457.844C6496.85 444.7 6491.59 414.14 6442.46 414.14H6361.3V572.2H6447.72C6482.55 572.2 6502.43 554.619 6502.43 524.059C6502.43 509.436 6495.37 497.442 6481.9 489.391ZM6440.98 443.221C6458.24 443.221 6463.49 449.465 6463.49 459.816C6463.49 470.167 6458.89 477.561 6441.64 477.561H6392.02V443.057H6440.98V443.221ZM6445.75 543.447H6392.02V503.685H6445.91C6461.85 503.685 6468.75 509.929 6468.75 524.059C6468.92 534.903 6464.48 543.447 6445.75 543.447Z" fill="white" fill-opacity="0.4"/>
<path d="M6618.1 53H6588.53C6588.53 106.563 6575.06 130.88 6546.96 147.639V53H6501.45V167.355C6492.91 170.313 6483.87 173.435 6474.17 176.721C6468.75 178.528 6463.33 180.5 6458.24 182.307V53H6412.72V201.202C6366.72 224.533 6341.91 256.737 6341.91 329.523H6371.48C6371.48 279.903 6383.64 255.258 6412.72 236.856V329.523H6458.24V215.989C6465.96 213.196 6474.17 210.239 6483.05 207.117C6489.29 204.981 6495.53 202.845 6501.45 200.709V329.359H6546.96V182.8C6590.34 162.098 6618.1 130.716 6618.1 53Z" fill="white" fill-opacity="0.4"/>
</svg>
